# xmcd
# 
# Track frame offsets:
#     150
#     29918
#     43903
#     60374
#     76648
#     97755
#     120530
#     139013
#     159250
#     178673
#     197258
# 
# Disc length: 2778
# 
# Revision: 1
# Processed by: cddbd v1.5.2PL0 Copyright (c) Steve Scherf et al.
# Submitted via: fre:ac v1.0.31
# 
DISCID=800ad80b
DTITLE=Giora Feidman - Global Oasis
DYEAR=2019
DGENRE=World - Jazz
TTITLE0=Night in the desert
TTITLE1=Dance with the air
TTITLE2=Montmartre Fog
TTITLE3=Pulse of Jerusalem
TTITLE4=Swinging Clouds
TTITLE5=Outer Space
TTITLE6=Full moon in Venice
TTITLE7=I knew you well before
TTITLE8=Samba
TTITLE9=Star Train
TTITLE10=Lullaby
EXTD=YEAR: 2019
EXTT0=
EXTT1=
EXTT2=
EXTT3=
EXTT4=
EXTT5=
EXTT6=
EXTT7=
EXTT8=
EXTT9=
EXTT10=
PLAYORDER=
